<?xml version="1.0" standalone="no"?>
<!DOCTYPE svg PUBLIC "-//W3C//DTD SVG 20010904//EN"
 "http://www.w3.org/TR/2001/REC-SVG-20010904/DTD/svg10.dtd">
<svg version="1.0" xmlns="http://www.w3.org/2000/svg"
 width="160.000000pt" height="160.000000pt" viewBox="0 0 160.000000 160.000000"
 preserveAspectRatio="xMidYMid meet">
<metadata>
Created by potrace 1.14, written by Peter Selinger 2001-2017
</metadata>
<g transform="translate(0.000000,160.000000) scale(0.100000,-0.100000)"
fill="#000000" stroke="none">
<path d="M564 1566 c-70 -31 -96 -115 -54 -183 68 -112 240 -64 240 67 0 96
-95 155 -186 116z"/>
<path d="M1104 1543 c-63 -12 -91 -108 -46 -156 18 -19 20 -26 10 -30 -13 -6
41 -11 77 -9 31 3 85 67 85 102 0 55 -66 104 -126 93z m51 -53 c4 -6 -5 -10
-20 -10 -14 0 -24 -4 -20 -10 3 -5 12 -7 20 -3 16 5 20 -21 9 -51 -10 -27 -23
-18 -34 25 -9 33 -9 44 2 50 18 12 36 11 43 -1z"/>
<path d="M298 1526 c-11 -8 -15 -20 -11 -34 6 -26 0 -28 -21 -6 -9 8 -16 11
-16 5 0 -5 5 -13 10 -16 6 -3 10 -17 10 -29 0 -13 7 -29 15 -36 21 -17 84 -15
103 4 10 10 12 16 5 16 -7 0 -15 -4 -18 -10 -8 -12 -85 -13 -85 -1 0 5 19 8
41 7 34 -1 43 3 50 20 4 12 14 24 21 27 7 3 -6 4 -29 2 -26 -3 -43 -1 -43 6 0
5 5 7 10 4 9 -5 15 15 11 38 -1 10 17 9 23 -2 4 -5 0 -11 -6 -14 -9 -3 -7 -7
5 -12 26 -11 33 2 12 25 -21 23 -41 26 -48 8 -4 -10 -6 -10 -6 0 -1 15 -11 15
-33 -2z m22 -31 c0 -14 -4 -25 -10 -25 -5 0 -9 11 -8 25 1 14 6 25 10 25 4 0
8 -11 8 -25z m-20 -45 c0 -5 -2 -10 -4 -10 -3 0 -8 5 -11 10 -3 6 -1 10 4 10
6 0 11 -4 11 -10z m60 -1 c0 -11 -37 -12 -43 -1 -3 4 6 8 19 8 13 1 24 -2 24
-7z"/>
<path d="M863 1499 c-10 -25 -9 -29 1 -19 15 12 26 -6 26 -41 0 -11 5 -17 10
-14 6 4 8 10 5 15 -3 5 0 12 6 16 7 4 9 3 6 -3 -4 -6 7 -13 25 -17 36 -7 53 2
20 11 -26 6 -28 18 -6 31 12 7 13 11 5 17 -7 4 -21 -1 -31 -10 -16 -15 -22
-16 -35 -5 -9 7 -14 19 -11 26 3 7 2 15 -2 18 -5 3 -13 -9 -19 -25z"/>
<path d="M930 1520 c0 -5 5 -10 11 -10 5 0 7 5 4 10 -3 6 -8 10 -11 10 -2 0
-4 -4 -4 -10z"/>
<path d="M197 1413 c-15 -14 -7 -62 12 -68 28 -8 51 5 51 29 0 36 -41 61 -63
39z"/>
<path d="M305 1370 c-4 -6 6 -10 24 -10 16 0 33 5 36 10 4 6 -6 10 -24 10 -16
0 -33 -4 -36 -10z"/>
<path d="M1257 1373 c-15 -14 -6 -52 13 -58 11 -3 20 -13 20 -21 0 -8 5 -14
10 -14 6 0 10 5 10 10 0 6 55 10 145 10 122 0 145 2 145 15 0 12 -18 15 -97
16 -195 3 -185 2 -194 27 -8 21 -38 30 -52 15z"/>
<path d="M0 1287 c0 -14 7 -27 15 -31 8 -3 15 -16 15 -28 0 -18 6 -23 25 -23
41 0 24 59 -26 89 -29 17 -29 17 -29 -7z"/>
<path d="M780 1295 c-7 -8 -9 -22 -5 -32 4 -10 6 -48 5 -85 -1 -56 2 -70 19
-87 29 -29 113 -29 141 -1 34 34 26 54 -20 52 -8 -1 -3 4 13 11 22 9 27 17 27
44 0 46 -30 73 -80 73 -29 0 -42 5 -50 20 -13 24 -33 26 -50 5z m68 -86 l27
-2 -27 -4 c-16 -2 -28 -8 -28 -13 0 -24 15 -40 36 -40 22 0 24 4 24 45 0 63
14 56 18 -9 2 -41 -1 -55 -12 -59 -9 -4 -16 -1 -17 6 0 8 -2 8 -5 1 -3 -6 -15
-9 -28 -7 -21 4 -23 10 -23 66 -1 34 1 52 4 40 3 -17 12 -23 31 -24z"/>
<path d="M308 1289 c-15 -8 -18 -25 -18 -98 0 -111 4 -115 114 -115 112 -1
116 3 116 115 0 77 -2 90 -19 99 -25 13 -171 13 -193 -1z m174 -109 c-3 -90
-12 -111 -39 -94 -25 16 -27 34 -4 34 18 0 21 6 21 41 l0 40 -47 -3 c-48 -3
-48 -3 -51 -40 -3 -35 -1 -38 22 -38 17 0 26 -6 26 -15 0 -24 -29 -29 -51 -9
-16 14 -20 28 -17 61 2 30 -1 43 -9 43 -17 0 -17 57 0 64 6 2 44 4 82 3 l70
-2 -3 -85z"/>
<path d="M341 1234 c0 -11 3 -14 6 -6 3 7 2 16 -1 19 -3 4 -6 -2 -5 -13z"/>
<path d="M370 1235 c0 -10 11 -15 35 -15 24 0 35 5 35 15 0 10 -11 15 -35 15
-24 0 -35 -5 -35 -15z"/>
<path d="M460 1234 c0 -8 5 -12 10 -9 6 4 8 11 5 16 -9 14 -15 11 -15 -7z"/>
<path d="M115 1280 c-4 -6 -4 -23 -1 -36 6 -22 9 -24 22 -13 17 14 15 50 -3
56 -6 2 -14 -1 -18 -7z"/>
<path d="M217 1279 c-9 -5 -21 -8 -25 -5 -4 3 -9 -11 -9 -31 -1 -21 2 -31 7
-24 6 10 13 10 28 2 30 -16 32 -15 32 29 0 42 -4 46 -33 29z"/>
<path d="M1335 1266 c-11 -17 -15 -41 -12 -78 l3 -53 2 56 c2 69 19 86 87 92
l50 3 -57 2 c-51 2 -59 -1 -73 -22z"/>
<path d="M1477 1282 c8 -5 8 -12 -3 -27 -12 -16 -16 -17 -23 -6 -14 21 -87
-15 -102 -51 -34 -83 76 -144 149 -83 17 14 37 25 46 25 13 0 16 11 16 53 0
50 -2 53 -40 75 -35 20 -71 32 -43 14z m-57 -92 c0 -25 -4 -30 -25 -30 -27 0
-31 10 -15 41 17 30 40 24 40 -11z m55 16 c23 -16 14 -46 -15 -46 -16 0 -20 7
-20 30 0 33 7 37 35 16z m-55 -86 c0 -13 -11 -13 -30 0 -12 8 -11 10 8 10 12
0 22 -4 22 -10z m55 0 c-3 -5 -13 -10 -21 -10 -8 0 -14 5 -14 10 0 6 9 10 21
10 11 0 17 -4 14 -10z"/>
<path d="M575 1268 c-9 -31 -13 -162 -5 -184 8 -20 16 -24 54 -24 26 0 48 6
56 15 7 8 19 15 26 15 10 0 14 13 14 45 0 33 -4 45 -15 45 -20 0 -19 30 2 45
16 12 10 40 -7 30 -4 -3 -13 2 -20 10 -15 19 -99 21 -105 3z m81 -88 c1 -62 0
-72 -5 -37 -3 26 -9 47 -13 47 -5 0 -12 0 -18 0 -5 0 -11 -19 -12 -42 -1 -32
-3 -24 -8 27 l-6 70 -2 -77 -2 -78 41 0 c24 0 38 -4 34 -10 -9 -14 -58 -13
-73 2 -16 16 -16 160 0 176 7 7 24 12 38 10 24 -3 25 -5 26 -88z"/>
<path d="M1199 1268 c-5 -12 -4 -58 2 -58 10 0 17 50 8 56 -5 3 -10 4 -10 2z"/>
<path d="M1037 1224 c-8 -8 3 -34 14 -34 5 0 9 9 9 20 0 19 -11 26 -23 14z"/>
<path d="M1070 1220 c0 -13 11 -13 30 0 12 8 11 10 -7 10 -13 0 -23 -4 -23
-10z"/>
<path d="M1145 1220 c4 -6 11 -8 16 -5 14 9 11 15 -7 15 -8 0 -12 -5 -9 -10z"/>
<path d="M1230 1226 c0 -2 7 -6 15 -10 8 -3 15 -1 15 4 0 6 -7 10 -15 10 -8 0
-15 -2 -15 -4z"/>
<path d="M202 1208 c5 -15 28 -23 28 -10 0 5 -7 13 -16 16 -10 4 -14 1 -12 -6z"/>
<path d="M127 1135 c-27 -43 -67 -64 -53 -29 7 17 -10 54 -24 54 -21 0 -50
-36 -50 -62 0 -35 15 -44 43 -25 16 10 29 12 47 5 24 -9 145 -6 155 4 2 2 -3
21 -13 41 -22 46 -43 49 -37 5 5 -33 -2 -24 -20 30 -4 12 -10 22 -14 22 -3 0
-19 -20 -34 -45z"/>
<path d="M1178 1111 c-30 -15 -38 -16 -38 -5 0 19 -16 18 -24 -2 -5 -13 -9
-14 -20 -4 -12 9 -17 6 -29 -16 l-14 -27 -16 24 c-9 12 -20 19 -24 15 -12 -12
-18 -131 -13 -251 l5 -110 100 -3 c55 -2 110 0 123 3 l22 5 -2 193 c-3 214 -3
213 -70 178z m-10 -184 c2 -18 -5 -30 -25 -44 -15 -11 -34 -18 -42 -15 -11 4
-11 6 0 13 10 6 11 9 2 9 -7 0 -13 10 -13 23 0 13 6 29 13 36 10 11 9 13 -5 8
-26 -9 -22 2 5 12 29 12 61 -8 65 -42z"/>
<path d="M1106 932 c-8 -13 11 -35 23 -28 16 10 14 36 -3 36 -8 0 -17 -4 -20
-8z"/>
<path d="M709 1064 c-9 -11 -10 -20 -2 -32 25 -41 86 -14 63 27 -13 25 -42 27
-61 5z"/>
<path d="M1410 1030 c-7 -14 -8 -26 -1 -38 9 -15 10 -13 11 9 0 30 31 44 62
28 22 -12 23 -25 3 -33 -10 -3 -15 -19 -15 -46 0 -29 4 -40 15 -40 8 0 15 -4
15 -10 0 -5 -25 -10 -55 -10 -30 0 -55 -4 -55 -8 0 -35 88 -44 120 -12 24 24
27 60 5 60 -8 0 -15 4 -15 10 0 5 7 7 15 4 24 -10 20 61 -5 86 -27 27 -85 27
-100 0z"/>
<path d="M123 1019 c-40 -25 -74 -103 -53 -122 10 -9 11 -9 6 1 -4 7 2 33 14
58 18 39 23 44 36 33 14 -12 14 -14 -2 -26 -10 -7 -14 -13 -8 -13 12 1 44 25
44 34 0 4 -4 4 -10 1 -14 -9 -12 19 2 33 19 19 66 14 88 -8 11 -11 24 -20 29
-20 5 0 12 -7 15 -16 4 -9 9 -14 13 -10 9 8 -26 45 -59 62 -38 20 -78 17 -115
-7z"/>
<path d="M497 1034 c-10 -11 -9 -34 3 -34 5 0 7 7 4 15 -7 17 21 21 29 5 3 -6
4 -5 3 2 -3 15 -28 22 -39 12z"/>
<path d="M384 998 c-3 -13 -14 -32 -23 -42 -9 -11 -10 -16 -3 -12 8 5 23 22
34 40 16 24 19 26 15 8 -3 -12 -1 -20 4 -16 15 9 10 44 -5 44 -8 0 -18 -10
-22 -22z"/>
<path d="M550 1008 c0 -12 7 -18 23 -17 15 0 17 2 7 6 -8 3 -18 11 -22 17 -5
7 -8 4 -8 -6z"/>
<path d="M600 1001 c0 -11 4 -22 9 -25 4 -3 6 6 3 19 -5 30 -12 33 -12 6z"/>
<path d="M638 990 c2 -16 6 -30 8 -30 2 0 4 14 4 30 0 17 -4 30 -8 30 -5 0 -7
-13 -4 -30z"/>
<path d="M776 998 c-10 -13 -16 -43 -16 -73 0 -75 18 -95 85 -95 72 0 85 14
85 95 0 81 -13 95 -85 95 -44 0 -57 -4 -69 -22z m124 -73 l0 -65 -55 0 -55 0
0 65 0 65 55 0 55 0 0 -65z"/>
<path d="M852 929 c2 -6 8 -10 13 -10 5 0 11 4 13 10 2 6 -4 11 -13 11 -9 0
-15 -5 -13 -11z"/>
<path d="M835 900 c-3 -5 -1 -10 4 -10 6 0 11 5 11 10 0 6 -2 10 -4 10 -3 0
-8 -4 -11 -10z"/>
<path d="M223 980 c2 -25 7 -35 20 -36 15 -2 15 -1 1 3 -14 4 -14 7 -3 14 10
6 11 11 3 17 -6 4 -14 14 -17 22 -3 8 -5 -1 -4 -20z"/>
<path d="M346 994 c-8 -20 -4 -25 11 -16 7 4 9 13 4 21 -6 10 -10 9 -15 -5z"/>
<path d="M667 971 c-4 -17 -3 -21 5 -13 5 5 8 16 6 23 -3 8 -7 3 -11 -10z"/>
<path d="M1442 960 c0 -19 2 -27 5 -17 2 9 2 25 0 35 -3 9 -5 1 -5 -18z"/>
<path d="M290 931 c0 -10 -3 -34 -6 -52 -5 -32 -5 -33 10 -15 18 22 22 86 6
86 -5 0 -10 -8 -10 -19z"/>
<path d="M1411 934 c0 -11 3 -14 6 -6 3 7 2 16 -1 19 -3 4 -6 -2 -5 -13z"/>
<path d="M166 921 c-11 -12 -14 -21 -7 -26 11 -6 15 1 12 18 -1 5 4 5 10 2 8
-5 8 -10 0 -18 -16 -16 -13 -30 4 -23 9 3 20 -3 27 -14 13 -21 48 -28 48 -10
0 6 -8 10 -19 10 -24 0 -43 24 -43 55 0 30 -9 32 -32 6z"/>
<path d="M1 894 c-1 -12 6 -41 14 -64 15 -43 11 -90 -7 -90 -16 0 1 -49 33
-96 18 -26 26 -49 23 -59 -6 -15 -4 -15 15 -3 17 10 22 21 20 48 -3 60 -2 64
19 49 16 -13 16 -12 3 4 -12 15 -12 23 -2 40 12 21 11 21 -8 0 -27 -32 -61
-31 -61 2 0 17 6 25 18 26 11 0 13 2 4 6 -14 6 -49 78 -62 128 -6 22 -8 24 -9
9z"/>
<path d="M86 861 c-3 -4 6 -19 20 -32 20 -19 36 -24 79 -24 31 0 60 6 67 13
10 10 9 12 -7 9 -11 -1 -26 -6 -33 -11 -15 -9 -99 11 -108 25 -7 11 -1 11 31
-1 17 -7 24 -7 20 0 -3 6 -13 10 -21 10 -8 0 -14 5 -14 10 0 12 -27 13 -34 1z"/>
<path d="M354 858 c-5 -7 -9 -22 -9 -33 0 -19 7 -20 165 -20 l165 0 3 33 3 32
-159 0 c-116 0 -162 -3 -168 -12z"/>
<path d="M1347 823 c-7 -7 -10 -173 -3 -173 17 0 36 15 37 29 0 12 2 12 6 2 3
-7 -7 -23 -22 -36 -19 -15 -26 -27 -22 -39 11 -28 36 -30 83 -6 25 12 57 25
72 29 26 7 27 10 30 90 2 53 -1 88 -9 97 -12 15 -159 21 -172 7z m43 -68 c0
-49 -15 -62 -22 -17 -5 35 1 62 13 62 5 0 9 -20 9 -45z m70 0 c0 -18 5 -25 19
-25 10 0 21 -6 24 -14 5 -11 1 -11 -23 1 -22 11 -34 11 -50 3 -14 -7 -20 -8
-20 0 0 6 7 13 15 16 8 4 15 15 15 25 0 10 5 19 10 19 6 0 10 -11 10 -25z"/>
<path d="M702 811 c-8 -4 -12 -19 -10 -32 2 -18 9 -24 28 -24 19 0 26 6 28 24
3 20 -11 41 -28 41 -3 0 -11 -4 -18 -9z"/>
<path d="M600 760 c0 -5 7 -10 15 -10 8 0 15 5 15 10 0 6 -7 10 -15 10 -8 0
-15 -4 -15 -10z"/>
<path d="M618 739 c-24 -14 -23 -52 3 -75 21 -19 21 -18 40 5 24 30 24 57 0
71 -23 12 -22 12 -43 -1z m32 -33 c0 -24 -17 -28 -23 -6 -3 13 0 20 9 20 8 0
14 -6 14 -14z"/>
<path d="M790 685 l0 -65 65 0 65 0 0 65 0 65 -65 0 -65 0 0 -65z m110 0 l0
-45 -45 0 -45 0 0 45 0 45 45 0 45 0 0 -45z"/>
<path d="M190 713 c0 -13 5 -23 10 -23 13 0 13 11 0 30 -8 12 -10 11 -10 -7z"/>
<path d="M230 700 c0 -5 7 -7 15 -4 8 4 15 8 15 10 0 2 -7 4 -15 4 -8 0 -15
-4 -15 -10z"/>
<path d="M470 700 c0 -5 5 -10 10 -10 6 0 10 5 10 10 0 6 -4 10 -10 10 -5 0
-10 -4 -10 -10z"/>
<path d="M1062 700 c-12 -5 -24 -15 -27 -22 -10 -29 -12 -74 -3 -90 10 -20 43
-24 54 -6 5 8 2 9 -9 5 -11 -4 -21 1 -28 14 -8 16 -7 25 7 40 9 10 24 19 32
19 13 0 12 -3 -3 -13 -14 -11 -15 -16 -5 -22 9 -5 11 -4 6 3 -5 8 2 12 20 12
25 0 26 -2 21 -35 l-6 -35 45 0 c53 0 84 14 84 38 -1 16 -1 16 -11 0 -5 -10
-17 -18 -25 -18 -8 0 -12 5 -9 10 3 6 1 10 -4 10 -6 0 -11 -4 -11 -10 0 -5 -9
-10 -20 -10 -26 0 -27 31 -2 53 22 20 53 22 70 5 9 -9 12 -7 12 8 0 38 -31 54
-101 53 -35 0 -74 -4 -87 -9z"/>
<path d="M354 676 c-8 -22 -1 -59 13 -64 17 -5 27 22 19 53 -7 28 -24 33 -32
11z"/>
<path d="M597 630 c-10 -46 -9 -80 2 -80 23 0 36 69 18 94 -13 18 -14 17 -20
-14z"/>
<path d="M665 650 c-12 -19 -8 -80 6 -97 22 -26 30 2 16 57 -9 35 -17 49 -22
40z"/>
<path d="M1185 639 c-10 -15 3 -25 16 -12 7 7 7 13 1 17 -6 3 -14 1 -17 -5z"/>
<path d="M113 559 c-6 -6 -9 -17 -7 -24 3 -7 -8 -18 -24 -26 -20 -9 -28 -18
-24 -28 3 -9 2 -13 -2 -9 -4 3 -9 14 -10 25 -2 11 -12 19 -27 20 -15 1 -17 0
-7 -3 10 -3 18 -10 18 -15 0 -6 -4 -8 -9 -4 -5 3 -12 1 -16 -5 -9 -14 4 -52
16 -44 5 3 7 9 4 14 -3 5 0 12 6 16 8 4 9 3 5 -4 -6 -11 20 -18 48 -13 5 1 6
-5 2 -14 -3 -9 -2 -13 4 -10 6 3 10 1 10 -4 0 -6 -4 -11 -8 -11 -4 0 -8 -19
-7 -42 1 -33 5 -44 19 -46 15 -3 17 0 11 14 -4 11 -7 27 -7 37 0 9 -4 17 -10
17 -7 0 -6 5 2 15 7 8 10 22 6 30 -10 26 9 60 34 60 12 0 27 7 33 17 21 32
-32 65 -60 37z"/>
<path d="M1305 550 c-15 -24 12 -30 136 -30 102 0 129 3 129 14 0 8 -17 16
-46 20 -72 9 -212 7 -219 -4z"/>
<path d="M710 534 l-25 -14 33 0 c22 0 32 5 32 15 0 18 -7 18 -40 -1z"/>
<path d="M948 529 c-24 -14 -24 -71 0 -92 50 -45 126 14 102 78 -8 21 -16 25
-47 25 -21 0 -46 -5 -55 -11z m72 -9 c0 -5 -14 -10 -31 -10 -17 0 -28 4 -24
10 3 6 17 10 31 10 13 0 24 -4 24 -10z m6 -42 c3 -5 -10 -8 -30 -6 -19 1 -33
5 -31 9 7 10 54 8 61 -3z"/>
<path d="M1087 523 c-4 -3 -7 -48 -7 -100 l0 -93 79 0 c74 0 79 -1 74 -20 -5
-18 -14 -20 -79 -20 -43 0 -74 -4 -74 -10 0 -12 203 -12 240 0 24 8 24 8 3 9
-16 1 -23 7 -23 22 0 12 -8 23 -20 26 -18 5 -20 14 -20 99 l0 94 -83 0 c-46 0
-87 -3 -90 -7z m146 -45 c12 -13 15 -96 5 -114 -4 -5 -32 -7 -65 -4 l-58 5 -3
49 c-2 27 -1 55 2 62 7 18 103 19 119 2z"/>
<path d="M1125 460 c-3 -5 -3 -25 1 -45 6 -34 8 -35 49 -35 38 0 44 3 49 26
12 47 -1 64 -49 64 -24 0 -47 -4 -50 -10z m85 -49 c0 -15 -7 -19 -35 -19 -40
0 -45 8 -12 24 34 17 47 16 47 -5z"/>
<path d="M290 507 c-23 -8 -36 -19 -38 -34 -2 -14 -11 -23 -25 -25 -19 -3 -21
-8 -19 -38 5 -46 7 -48 37 -42 22 4 25 9 25 48 0 32 5 46 18 53 12 6 23 6 28
1 5 -5 24 -10 42 -12 30 -2 32 -5 32 -40 0 -35 -2 -38 -29 -38 -40 0 -60 -9
-72 -31 -9 -18 -4 -19 131 -19 l140 0 0 25 c0 22 -4 25 -39 25 -34 0 -42 5
-60 34 -27 44 -27 46 13 46 19 0 39 7 47 16 20 24 -15 47 -61 40 -47 -8 -49
-8 -95 -2 -22 3 -56 0 -75 -7z m160 -119 c0 -4 -9 -8 -20 -8 -20 0 -28 29 -13
44 7 7 33 -21 33 -36z"/>
<path d="M802 508 c-16 -16 -16 -170 0 -186 18 -18 53 -15 71 6 13 14 17 38
17 93 0 82 -9 99 -50 99 -14 0 -31 -5 -38 -12z m63 -93 c0 -90 0 -90 -26 -93
-18 -2 -29 3 -33 14 -5 14 -4 15 9 4 28 -23 45 -4 45 50 0 27 -4 50 -10 50 -5
0 -10 -5 -10 -11 0 -6 -7 -4 -15 5 -8 8 -15 21 -14 28 0 10 2 10 6 1 8 -22 43
-15 43 8 0 17 -5 20 -25 17 -14 -3 -25 -2 -25 2 0 13 14 21 35 18 18 -3 20
-10 20 -93z"/>
<path d="M622 475 c1 -19 5 -35 10 -35 4 0 8 5 8 11 0 8 6 7 17 -2 15 -12 16
-12 10 3 -3 10 -2 20 3 23 22 14 9 35 -20 35 -27 0 -29 -3 -28 -35z"/>
<path d="M1340 470 c0 -13 50 -13 70 0 11 7 4 10 -27 10 -24 0 -43 -4 -43 -10z"/>
<path d="M1447 468 c6 -11 53 -10 53 2 0 5 -13 8 -29 7 -16 -1 -27 -5 -24 -9z"/>
<path d="M340 417 l-23 -32 29 27 c15 15 26 30 23 33 -3 2 -16 -10 -29 -28z"/>
<path d="M1339 448 c0 -2 -1 -23 -3 -48 -3 -67 13 -80 94 -80 83 0 103 16 98
81 l-3 44 -92 3 c-51 1 -93 1 -94 0z m55 -72 c-4 -17 -13 -26 -25 -26 -25 0
-24 7 3 35 27 28 31 26 22 -9z m82 19 c-3 -9 0 -15 9 -15 8 0 15 -7 15 -15 0
-8 -9 -15 -20 -15 -11 0 -20 6 -20 14 0 8 -3 21 -6 30 -4 11 -1 16 11 16 11 0
15 -5 11 -15z"/>
<path d="M1 408 c0 -13 3 -17 6 -10 2 6 10 9 16 5 7 -4 6 1 -2 10 -18 22 -21
21 -20 -5z"/>
<path d="M50 405 c5 -7 6 -16 2 -21 -4 -5 -3 -5 2 -1 15 12 15 34 0 34 -9 0
-11 -4 -4 -12z"/>
<path d="M600 410 c0 -5 5 -10 10 -10 6 0 10 -6 10 -14 0 -26 18 -27 44 -3 14
14 26 27 26 31 0 3 -20 6 -45 6 -25 0 -45 -4 -45 -10z"/>
<path d="M960 386 c-3 -2 -3 -26 -2 -53 l4 -49 41 5 c29 4 43 11 45 24 2 9 -1
17 -7 17 -6 0 -11 -7 -11 -15 0 -10 -10 -15 -30 -15 -28 0 -30 2 -30 40 0 36
2 40 26 40 17 0 28 -6 31 -20 7 -27 25 -25 21 3 -2 18 -10 23 -43 25 -23 2
-43 1 -45 -2z"/>
<path d="M4 363 c2 -10 7 -17 12 -15 13 3 11 25 -3 29 -6 2 -10 -4 -9 -14z"/>
<path d="M712 363 c-14 -25 3 -63 27 -63 28 0 45 34 31 60 -13 25 -46 26 -58
3z"/>
<path d="M36 355 c-3 -8 -3 -15 0 -15 3 0 12 7 20 15 13 13 13 15 1 15 -8 0
-17 -7 -21 -15z"/>
<path d="M980 355 c0 -8 5 -15 11 -15 5 0 7 -4 4 -10 -3 -5 -1 -10 4 -10 6 0
11 11 11 25 0 16 -6 25 -15 25 -8 0 -15 -7 -15 -15z"/>
<path d="M184 318 c-3 -5 -45 -8 -95 -8 -53 0 -89 -4 -89 -10 0 -6 35 -10 86
-10 l86 0 -7 -27 c-4 -16 -7 -29 -8 -30 -1 0 -33 -6 -72 -11 l-70 -9 72 -2
c68 -1 71 -2 65 -23 -3 -11 -13 -29 -24 -40 -23 -23 -23 -34 3 -41 14 -4 23 1
31 18 6 13 18 25 28 28 10 2 20 19 24 38 5 27 9 31 16 19 5 -8 10 -23 10 -32
0 -9 9 -19 19 -23 20 -6 36 -49 26 -66 -7 -10 35 -30 48 -22 12 7 8 40 -7 52
-8 6 -16 21 -19 33 -6 20 -4 21 72 15 70 -6 81 -4 96 13 10 11 28 20 39 20 17
0 18 2 6 10 -10 6 48 10 174 10 104 0 187 2 185 4 -4 3 -439 16 -546 16 -42 0
-43 1 -53 43 -11 41 -12 42 -51 42 -23 0 -43 -3 -45 -7z m256 -138 c0 -5 -2
-10 -4 -10 -3 0 -8 5 -11 10 -3 6 -1 10 4 10 6 0 11 -4 11 -10z"/>
<path d="M1067 253 c-4 -3 -7 -15 -7 -25 0 -10 -7 -21 -15 -25 -13 -4 -15 -18
-12 -63 2 -32 7 -63 11 -69 4 -6 33 -11 65 -11 61 0 69 6 87 70 3 14 14 34 23
45 10 13 7 12 -12 -4 l-27 -24 0 26 c0 20 -5 27 -20 27 -11 0 -20 4 -20 9 0 5
-9 11 -19 14 -14 3 -18 1 -14 -9 3 -8 -1 -14 -10 -14 -20 0 -31 16 -17 25 5 3
10 13 10 21 0 15 -12 19 -23 7z m71 -105 c-2 -31 -8 -44 -20 -46 -13 -3 -18 3
-18 20 0 39 12 68 27 68 11 0 13 -11 11 -42z m32 -3 c0 -19 -5 -35 -10 -35 -6
0 -10 16 -8 35 1 19 6 35 10 35 4 0 8 -16 8 -35z m-80 -16 c0 -17 -4 -28 -10
-24 -11 7 -9 55 2 55 4 0 8 -14 8 -31z"/>
<path d="M908 223 c7 -3 16 -2 19 1 4 3 -2 6 -13 5 -11 0 -14 -3 -6 -6z"/>
<path d="M940 221 c0 -4 11 -7 25 -6 14 2 25 -2 25 -8 0 -9 2 -9 8 -1 4 6 14
14 22 17 8 3 -6 6 -32 6 -27 1 -48 -3 -48 -8z"/>
<path d="M1180 221 c0 -4 24 -6 53 -4 77 7 81 11 10 12 -35 1 -63 -3 -63 -8z"/>
<path d="M578 203 c23 -2 59 -2 80 0 20 2 1 4 -43 4 -44 0 -61 -2 -37 -4z"/>
<path d="M905 190 c3 -5 8 -10 11 -10 2 0 4 5 4 10 0 6 -5 10 -11 10 -5 0 -7
-4 -4 -10z"/>
<path d="M1263 175 c15 -14 34 -25 42 -25 8 0 19 -8 24 -17 9 -16 10 -16 11
-1 0 22 -56 68 -83 68 -21 -1 -21 -2 6 -25z"/>
<path d="M1226 148 c-12 -46 -7 -68 19 -80 30 -14 42 -5 51 38 4 24 2 33 -11
38 -10 3 -24 1 -33 -6 -13 -11 -14 -10 -8 10 4 12 3 22 -2 22 -5 0 -12 -10
-16 -22z m51 -60 c-3 -8 -6 -5 -6 6 -1 11 2 17 5 13 3 -3 4 -12 1 -19z"/>
<path d="M481 123 c-1 -32 0 -33 37 -31 36 1 36 1 5 5 -26 3 -33 9 -36 31 -4
24 -4 24 -6 -5z"/>
<path d="M418 133 c7 -3 16 -2 19 1 4 3 -2 6 -13 5 -11 0 -14 -3 -6 -6z"/>
<path d="M562 110 c0 -14 2 -19 5 -12 2 6 2 18 0 25 -3 6 -5 1 -5 -13z"/>
<path d="M584 119 c-3 -6 -2 -15 4 -21 6 -6 12 -6 16 1 4 6 2 11 -4 11 -6 0
-8 5 -5 10 3 6 4 10 1 10 -3 0 -8 -5 -12 -11z"/>
<path d="M622 110 c0 -14 2 -19 5 -12 2 6 2 18 0 25 -3 6 -5 1 -5 -13z"/>
<path d="M643 115 c-3 -9 -3 -19 1 -22 3 -4 6 1 6 10 0 22 27 22 33 0 4 -14 5
-12 6 5 1 16 -5 22 -19 22 -11 0 -23 -7 -27 -15z"/>
<path d="M713 114 c-17 -18 -16 -19 7 -21 21 -2 24 5 12 23 -5 9 -10 8 -19 -2z"/>
<path d="M752 110 c0 -14 2 -19 5 -12 2 6 2 18 0 25 -3 6 -5 1 -5 -13z"/>
<path d="M776 114 c-8 -21 -8 -24 3 -24 5 0 11 9 14 20 6 24 -8 27 -17 4z"/>
<path d="M820 120 c0 -5 0 -12 0 -15 0 -3 3 -4 8 -2 4 1 6 6 4 11 -2 5 4 6 13
3 8 -4 15 -2 15 3 0 6 -9 10 -20 10 -11 0 -20 -4 -20 -10z"/>
<path d="M886 111 c10 -10 21 -17 23 -15 6 6 -20 34 -32 34 -6 0 -2 -8 9 -19z"/>
<path d="M1335 100 c3 -5 8 -10 11 -10 2 0 4 5 4 10 0 6 -5 10 -11 10 -5 0 -7
-4 -4 -10z"/>
<path d="M1373 93 c9 -2 23 -2 30 0 6 3 -1 5 -18 5 -16 0 -22 -2 -12 -5z"/>
</g>
</svg>
